<svg width="85" height="98" viewBox="0 0 85 98" fill="none" xmlns="http://www.w3.org/2000/svg">
<path d="M63.3555 12.2742C61.4252 9.49971 58.9987 7.1059 56.1984 5.21337C52.388 2.77829 47.8573 1.74508 43.3841 1.083C34.12 -0.288288 27.1906 0.407248 16.2298 6.94123C5.26914 13.4752 0.725408 24.5391 0.447932 36.0297C0.170457 47.5204 4.97602 58.8137 12.4892 67.5156C14.8228 70.2179 17.5304 72.7721 20.9092 73.9315C23.1875 74.6221 25.5726 74.8919 27.9475 74.7277C40.4169 74.2973 52.4485 68.7173 61.6021 60.2368C66.4641 55.7323 70.7039 50.1448 71.8688 43.6206C72.2118 41.526 72.3199 39.3997 72.1911 37.2811C71.7491 28.2619 68.6777 19.5691 63.3555 12.2742Z" fill="#43B7E9"/>
<path d="M82.4264 58.527C81.5411 57.8843 80.4673 57.5539 79.3738 57.5878C77.086 57.5415 75.0104 58.1523 72.9654 58.7589C64.3217 61.3224 55.6747 63.8869 47.2561 66.8825C46.2224 67.2504 45.1267 67.6856 44.7069 68.7182C44.2871 69.7507 44.0996 70.4026 45.3326 71.7358L66.8265 94.9759C67.3645 95.6199 67.9962 96.1794 68.7005 96.6357C69.2173 96.9144 69.7884 97.0777 70.3744 97.1144C70.9604 97.151 71.5475 97.0601 72.095 96.848C75.141 95.796 76.7957 92.7944 78.1168 89.817C81.753 81.6992 83.8335 72.9712 84.2505 64.0861C84.3321 62.2206 84.1151 59.8651 82.4264 58.527ZM79.3787 70.2704C79.2878 72.6435 78.2302 74.8541 77.3067 77.0433C76.0377 80.0464 74.9876 83.1373 74.1645 86.2919C73.6968 88.0768 73.0146 90.1976 71.2268 90.6591C69.4995 91.105 67.8981 89.6886 66.686 88.3775C62.0257 83.3357 54.5066 73.796 53.3385 72.698C52.1704 71.6 52.779 70.8063 53.0589 70.3791C53.3794 69.9777 53.8074 69.6756 54.293 69.508C60.1678 66.8793 66.4105 65.1661 72.8041 64.428C73.8754 64.2372 74.9751 64.2777 76.0294 64.5467C78.2893 65.2765 79.4706 67.8963 79.3787 70.2704Z" fill="#7C2982"/>
</svg>
