<svg width="72" height="119" viewBox="0 0 72 119" fill="none" xmlns="http://www.w3.org/2000/svg">
<path d="M40.2743 8.83734C32.0074 13.0538 24.6192 15.0084 15.6099 17.242C14.3848 17.5463 13.0469 17.8058 12.1952 18.7383C11.552 19.4415 11.3034 20.4087 11.076 21.3341C8.914 30.1525 5.0893 44.778 2.9274 53.596C9.12168 63.8569 17.8285 66.2287 24.0235 76.4897C24.2172 76.8856 24.5141 77.2219 24.883 77.4632C25.4373 77.7562 26.1158 77.5825 26.7178 77.4024L46.8293 71.3841C51.2589 70.0592 53.7674 71.2007 56.2425 67.2962C57.3981 65.4738 57.9102 63.3288 58.4052 61.228L65.2056 32.3268C65.4483 31.5307 65.5315 30.6945 65.4504 29.8662C65.2733 28.8079 64.5772 27.9202 63.8989 27.0886C57.2833 18.9773 50.5463 16.3006 42.9419 9.10799C42.6833 8.82283 42.3611 8.60252 42.0016 8.46478C41.4223 8.29168 40.8136 8.56233 40.2743 8.83734ZM44.1397 18.4791C48.4951 22.0323 52.7959 25.6482 57.0422 29.3268C58.0305 30.1827 59.0566 31.1009 59.4783 32.32C59.9604 33.7127 59.5638 35.2206 59.1655 36.6249L52.6613 59.5604C52.4219 60.4064 52.1595 61.2913 51.529 61.9107C50.6524 62.7732 49.2967 62.9149 48.1376 63.365C46.7483 63.9062 39.2308 67.5501 35.5544 68.562C33.6719 69.0803 30.3864 71.6729 28.5136 71.0706C25.5604 70.1214 23.8358 67.1967 22.2337 64.5848C19.4744 60.0881 12.4606 55.3854 11.7453 52.8099C11.0299 50.2344 15.8475 39.7226 15.9693 33.4819C16.0006 31.9316 15.9714 30.3003 16.7259 28.9461C17.6823 27.2315 19.6582 26.3646 21.5019 25.6102C27.8862 22.9982 34.2705 20.3861 40.6547 17.7739C41.074 17.5697 41.5295 17.4501 41.9951 17.4218C42.8086 17.4267 43.5109 17.9661 44.1397 18.4791Z" fill="#21B14B"/>
<path d="M68.7963 68.9125C68.7236 67.5433 68.3986 66.1994 67.8376 64.9483C67.044 63.2934 65.7023 61.9687 64.301 60.784C61.3991 58.3305 58.8609 57.0893 53.6836 56.9985C48.5063 56.9076 44.5737 59.7526 42.022 63.6567C39.4704 67.5608 38.7121 72.4826 39.4434 77.0887C39.6705 78.5196 40.0592 79.9798 40.9756 81.1017C41.6137 81.8271 42.3786 82.4301 43.2328 82.8814C47.6254 85.3992 52.9701 86.0473 57.9383 85.0797C60.5782 84.5659 63.2353 83.5453 65.0319 81.5443C65.5979 80.8955 66.0897 80.1855 66.4982 79.4275C68.274 76.2219 69.0729 72.5667 68.7963 68.9125Z" fill="#7C2982"/>
<path d="M37.228 133.174C38.4297 132.914 39.5107 132.262 40.3009 131.319C42.0519 129.437 43.094 127.24 44.1168 125.073C48.4384 115.911 52.7617 106.745 56.5524 97.4479C57.0176 96.3067 57.4734 95.0655 56.9224 93.9378C56.3714 92.81 55.9654 92.1683 53.9255 92.2037C51.8857 92.2391 30.2168 92.6145 18.362 92.8199C17.4196 92.7886 16.4779 92.8991 15.5684 93.1478C14.9479 93.3725 14.3834 93.7291 13.914 94.193C13.4446 94.6569 13.0814 95.2171 12.8494 95.8349C11.451 99.1751 12.7278 102.808 14.2341 106.144C18.3152 115.267 24.0719 123.542 31.2055 130.542C32.7062 132.007 34.8426 133.588 37.228 133.174Z" fill="#EBBD1D"/>
</svg>
