<svg width="120" height="117" viewBox="0 0 120 117" fill="none" xmlns="http://www.w3.org/2000/svg">
<path d="M119.563 77.0327C113.957 61.4245 112.156 47.9118 110.216 31.4739C109.955 29.2334 109.755 26.8178 108.325 25.0925C107.224 23.7962 105.568 23.1411 103.98 22.5336C88.8285 16.727 63.7533 6.67649 48.6062 0.88051C29.0192 9.53936 22.8602 24.4205 3.27325 33.0794C2.52674 33.3334 1.863 33.7843 1.35239 34.3843C0.709124 35.3024 0.86789 36.5366 1.05012 37.6404L7.20049 74.584C8.56428 82.7023 5.97333 86.9044 12.343 92.1603C15.3227 94.6169 18.9944 96.0275 22.6191 97.3464L72.3367 115.861C73.6937 116.473 75.1587 116.81 76.647 116.854C78.564 116.772 80.2908 115.741 81.921 114.728C97.7897 104.841 104.051 93.512 118.507 81.6682C119.073 81.2752 119.539 80.7532 119.864 80.1455C120.16 79.1072 120.053 77.9954 119.563 77.0327ZM101.574 81.6956C94.2913 88.6104 86.913 95.4117 79.4388 102.099C77.7048 103.656 75.8398 105.267 73.5859 105.744C71.0138 106.281 68.4275 105.243 66.0258 104.227L26.8116 87.5732C25.313 87.0781 23.9671 86.2069 22.903 85.0431C21.5704 83.2995 21.6254 80.8662 21.0866 78.7126C20.4769 76.1483 15.663 62.0145 14.6984 55.2823C14.1965 51.8325 10.329 45.3918 11.8323 42.2519C14.1775 37.2436 19.7502 34.8472 24.7379 32.5934C33.334 28.7175 43.2443 17.3617 47.9757 16.6755C52.7071 15.9893 70.2606 26.8653 81.2981 28.4817C84.1104 28.8809 86.9836 29.1841 89.2158 30.8118C92.0394 32.8899 93.1313 36.5781 94.0476 40.0289L103.628 75.6671C103.895 76.4525 104.004 77.2827 103.949 78.1102C103.781 79.5591 102.667 80.6799 101.616 81.6795L101.574 81.6956Z" fill="#21B14B"/>
</svg>
