<?xml version="1.0" encoding="UTF-8"?>
<svg id="Layer_1" data-name="Layer 1" xmlns="http://www.w3.org/2000/svg" viewBox="0 0 88.23 105.9">
  <defs>
    <style>
      .cls-1 {
        fill: #e62e2e;
      }

      .cls-2 {
        fill: #43b7e9;
      }

      .cls-3 {
        fill: #7c2982;
      }
    </style>
  </defs>
  <path class="cls-1" d="M87.83,96.49c-1.06-4.7-2.12-9.4-3.19-14.09-.37-1.64-.86-3.47-2.19-4.32-1.02-.65-2.25-.53-3.39-.38-3.11,.4-6.21,.86-9.3,1.39l.13,2.84c2.34-.31,5.6-.79,8.18-1.18,.47-.13,.98-.1,1.44,.07,.31,.18,.59,.42,.8,.71,2.94,3.5,3.29,8.44,4.46,12.98,.37,1.44,.75,2.96,.39,4.37-.04,.23-.14,.44-.29,.61-.19,.16-.43,.26-.68,.3-4.7,1.02-8.89,1.84-13.38,2.62l.16,3.49,13.78-2.78c.95-.2,1.95-.42,2.64-1.16,1.21-1.31,.87-3.58,.44-5.47Z"/>
  <path class="cls-2" d="M71.43,28.37c-1.17,6.52-5.41,12.11-10.27,16.62-9.15,8.48-21.18,14.06-33.65,14.49-2.38,.16-4.76-.11-7.04-.8-3.38-1.16-6.09-3.71-8.42-6.41C4.54,43.56-.27,32.27,.01,20.78,.19,13.29,2.18,5.99,6.59,0h58.33c4.09,6.63,6.45,14.21,6.83,22.03,.13,2.12,.02,4.25-.32,6.34Z"/>
  <path class="cls-3" d="M81.99,43.28c-.89-.64-1.96-.97-3.05-.94-2.29-.05-4.36,.56-6.41,1.17-8.64,2.56-17.29,5.13-25.71,8.12-1.03,.37-2.13,.8-2.55,1.84-.42,1.03-.61,1.68,.63,3.02l21.49,23.24c.54,.64,1.17,1.2,1.87,1.66,.52,.28,1.09,.44,1.67,.48,.59,.04,1.17-.05,1.72-.27,3.05-1.05,4.7-4.05,6.02-7.03,3.64-8.12,5.72-16.85,6.13-25.73,.08-1.87-.14-4.22-1.82-5.56Zm-3.05,11.74c-.09,2.37-1.15,4.58-2.07,6.77-1.27,3-2.32,6.09-3.14,9.25-.47,1.78-1.15,3.91-2.94,4.37-1.73,.45-3.33-.97-4.54-2.28-4.66-5.04-12.18-14.58-13.35-15.68-1.17-1.1-.56-1.89-.28-2.32,.32-.4,.75-.7,1.23-.87,5.87-2.63,12.12-4.34,18.51-5.08,1.07-.19,2.17-.15,3.23,.12,2.26,.73,3.44,3.35,3.35,5.72Z"/>
</svg>