<svg width="167" height="144" viewBox="0 0 167 144" fill="none" xmlns="http://www.w3.org/2000/svg">
<path d="M119.236 60.1444C118.874 53.3027 117.247 46.5867 114.438 40.3351C110.462 32.0653 103.749 25.4472 96.7319 19.537C82.2024 7.25593 69.4976 1.05359 43.5699 0.592906C17.6421 0.132225 -2.02335 14.3572 -14.8183 33.8518C-27.6132 53.3465 -31.3864 77.9424 -27.7258 100.954C-26.5995 108.1 -24.651 115.392 -20.0556 120.999C-16.8701 124.616 -13.0541 127.627 -8.7925 129.887C13.2044 142.46 39.9544 145.696 64.8347 140.865C78.0463 138.292 91.3594 133.202 100.347 123.202C103.185 119.963 105.649 116.417 107.691 112.628C116.59 96.6321 120.603 78.388 119.236 60.1444Z" fill="#EBBD1D"/>
<path d="M165.571 33.9364C166.524 36.0286 166.758 38.377 166.237 40.6166C165.368 45.3587 163.231 49.3819 161.127 53.3629C152.219 70.1303 143.293 86.8537 133.545 102.975C132.339 104.937 130.988 107.01 128.673 107.446C126.359 107.881 124.933 107.993 122.694 104.901C120.454 101.809 96.7061 68.886 83.7129 50.8739C82.6075 49.4973 81.7179 47.9613 81.0744 46.3182C80.7154 45.1362 80.6175 43.8904 80.7873 42.6667C80.9571 41.4429 81.3907 40.2703 82.0582 39.2295C85.5132 33.3891 92.3965 31.2472 99.1129 29.7535C117.41 25.651 136.313 25.0103 154.841 27.8646C158.742 28.4625 163.519 29.8922 165.571 33.9364ZM140.036 35.3071C135.074 34.5232 130.086 35.7624 125.18 36.7565C118.437 38.1134 111.605 38.9819 104.737 39.3551C100.853 39.5681 96.2096 40.0796 94.4835 43.588C92.8352 46.9621 95.0928 50.8559 97.287 53.9003C105.746 65.6145 122.295 85.101 124.074 87.9718C125.852 90.8425 127.746 89.9164 128.742 89.5179C129.705 89.024 130.509 88.2691 131.061 87.3398C138.963 76.3318 145.128 64.1816 149.342 51.3122C150.042 49.1236 150.712 46.8754 150.458 44.6075C149.893 39.646 144.976 36.1161 140.036 35.3071Z" fill="#7C2982"/>
</svg>
